<svg width="68" height="68" viewBox="0 0 68 68" fill="none" xmlns="http://www.w3.org/2000/svg">
<circle cx="34" cy="34" r="34" fill="#FEF3C7"/>
<path d="M49.3396 35.9176V43.1081C49.3396 45.2694 48.481 47.3422 46.9527 48.8705C45.4245 50.3987 43.3517 51.2573 41.1904 51.2573H24.8919C20.3912 51.2573 16.7427 47.6088 16.7427 43.1081V26.8096C16.7427 22.3089 20.3912 18.6604 24.8919 18.6604H32.0824" stroke="#1E293B" stroke-width="2.88" stroke-linecap="round" stroke-linejoin="round"/>
<path fill-rule="evenodd" clip-rule="evenodd" d="M44.0935 15.7036C44.3578 15.1654 44.9052 14.8245 45.5047 14.8245C46.1043 14.8245 46.6516 15.1654 46.916 15.7036L48.0664 18.0352C48.295 18.5003 48.7385 18.8225 49.2514 18.8961L51.8266 19.2796C52.4198 19.3652 52.9128 19.7807 53.0977 20.3508C53.2826 20.921 53.1272 21.5466 52.6971 21.9641L50.8353 23.7818C50.4636 24.1425 50.2942 24.6636 50.3827 25.1739L50.8218 27.7376C50.9236 28.3278 50.6813 28.9245 50.1969 29.2767C49.7124 29.6288 49.07 29.6751 48.5401 29.3962L46.2391 28.1863C45.7807 27.9445 45.2326 27.9445 44.7742 28.1863L42.4732 29.3962C41.9432 29.6751 41.3008 29.6288 40.8164 29.2767C40.3319 28.9245 40.0896 28.3278 40.1914 27.7376L40.6305 25.1739C40.7191 24.6636 40.5497 24.1425 40.178 23.7818L38.3161 21.9641C37.886 21.5466 37.7307 20.921 37.9156 20.3508C38.1005 19.7807 38.5934 19.3652 39.1867 19.2796L41.7618 18.8961C42.2748 18.8225 42.7183 18.5003 42.9468 18.0352L44.0935 15.7036Z" stroke="#D97706" stroke-width="2.88" stroke-linecap="round" stroke-linejoin="round"/>
<path fill-rule="evenodd" clip-rule="evenodd" d="M35.2077 43.5873H27.0355C26.4303 43.587 25.9002 43.1818 25.7412 42.5979L24.4603 37.9001C24.3504 37.4967 24.4348 37.0651 24.6885 36.7327C24.9423 36.4004 25.3364 36.2053 25.7546 36.2051H36.4924C36.9105 36.2053 37.3047 36.4004 37.5584 36.7327C37.8122 37.0651 37.8966 37.4967 37.7867 37.9001L36.5058 42.5979C36.3464 43.1831 35.8143 43.5887 35.2077 43.5873V43.5873Z" stroke="#1E293B" stroke-width="2.88" stroke-linecap="round" stroke-linejoin="round"/>
<path d="M25.6167 36.2378L29.4114 31.0319C29.8085 30.4886 30.4411 30.1675 31.1141 30.1675C31.787 30.1675 32.4196 30.4886 32.8168 31.0319L36.6268 36.2416" stroke="#1E293B" stroke-width="2.88" stroke-linecap="round" stroke-linejoin="round"/>
</svg>
