<svg width="68" height="68" viewBox="0 0 68 68" fill="none" xmlns="http://www.w3.org/2000/svg">
<circle cx="34" cy="34" r="34" fill="#FEF3C7"/>
<path d="M32.0835 49.3333C22.5557 49.3333 14.8335 41.611 14.8335 32.0833C14.8335 22.5555 22.5557 14.8333 32.0835 14.8333C41.6112 14.8333 49.3335 22.5555 49.3335 32.0833" stroke="#D97706" stroke-width="2.88" stroke-linecap="round" stroke-linejoin="round"/>
<path d="M53.1668 37.8333H50.7557L48.8275 47.476H39.1847L37.8335 40.7255H50.1768" stroke="#1E293B" stroke-width="2.88" stroke-linecap="round" stroke-linejoin="round"/>
<path d="M40.0801 52.2312C40.1184 52.1929 40.1798 52.1929 40.2162 52.2312C40.2526 52.2696 40.2545 52.3309 40.2162 52.3673C40.1779 52.4037 40.1165 52.4056 40.0801 52.3673C40.0418 52.329 40.0418 52.2676 40.0801 52.2312" stroke="#D97706" stroke-width="2.88" stroke-linecap="round" stroke-linejoin="round"/>
<path d="M47.7945 52.2312C47.8328 52.1929 47.8941 52.1929 47.9305 52.2312C47.967 52.2696 47.9689 52.3309 47.9305 52.3673C47.8922 52.4037 47.8309 52.4056 47.7945 52.3673C47.7561 52.329 47.7561 52.2676 47.7945 52.2312" stroke="#D97706" stroke-width="2.88" stroke-linecap="round" stroke-linejoin="round"/>
<path d="M39.7503 32.0833C39.7503 26.7856 38.3646 21.4879 35.5969 16.8649C33.9735 14.1567 30.1938 14.1567 28.5723 16.8649C23.0332 26.1128 23.0332 38.0556 28.5723 47.3035C29.3831 48.6567 30.7324 49.3333 32.0837 49.3333" stroke="#D97706" stroke-width="2.88" stroke-linecap="round" stroke-linejoin="round"/>
<path d="M15.811 26.3333H47.4169" stroke="#D97706" stroke-width="2.88" stroke-linecap="round" stroke-linejoin="round"/>
<path d="M15.811 37.8333H32.0835" stroke="#D97706" stroke-width="2.88" stroke-linecap="round" stroke-linejoin="round"/>
</svg>
