<svg width="68" height="68" viewBox="0 0 68 68" fill="none" xmlns="http://www.w3.org/2000/svg">
<circle cx="34" cy="34" r="34" fill="#FEF3C7"/>
<path d="M33.9998 51.2501H22.4998C21.4831 51.2504 20.5079 50.8466 19.789 50.1276C19.07 49.4087 18.6662 48.4335 18.6665 47.4167V27.2917C18.6671 25.7042 19.9539 24.4173 21.5415 24.4167H46.4582C48.0457 24.4173 49.3326 25.7042 49.3332 27.2917V34.0001" stroke="#1E293B" stroke-width="2.88" stroke-linecap="round" stroke-linejoin="round"/>
<path fill-rule="evenodd" clip-rule="evenodd" d="M51.9941 44.9011L47.7242 46.6959C47.2627 46.8899 46.8955 47.257 46.7014 47.7185L44.9028 51.9943C44.5883 52.7409 43.8382 53.209 43.0293 53.1634C42.2204 53.1178 41.5277 52.5684 41.2991 51.7911L37.914 40.2913C37.716 39.6189 37.9012 38.8921 38.3969 38.3965C38.8926 37.9009 39.6195 37.7157 40.2918 37.9138L51.7911 41.2978C52.5684 41.5262 53.118 42.2189 53.1635 43.0278C53.2091 43.8367 52.7408 44.5868 51.9941 44.9011Z" stroke="#D97706" stroke-width="2.88" stroke-linecap="round" stroke-linejoin="round"/>
<path d="M26.3335 24.4167V23.9375V23.9375C26.3336 19.968 29.5515 16.7501 33.521 16.75H34.4793C38.4488 16.7501 41.6667 19.968 41.6668 23.9375V23.9375V24.4167" stroke="#1E293B" stroke-width="2.88" stroke-linecap="round" stroke-linejoin="round"/>
</svg>
