<svg width="330" height="190" viewBox="0 0 330 190" fill="none" xmlns="http://www.w3.org/2000/svg">
<mask id="mask0_1_2452" style="mask-type:alpha" maskUnits="userSpaceOnUse" x="0" y="0" width="330" height="190">
<rect x="0.666748" width="329.333" height="190" fill="#C4C4C4"/>
</mask>
<g mask="url(#mask0_1_2452)">
<path d="M326.526 -124.011C317.808 -119.778 300.615 -101.342 301.582 -61.4606C302.791 -11.6084 329.163 19.5885 335.756 66.6189C340.622 101.331 339.931 188.271 310.263 224.798" stroke="#2B2C4F" stroke-opacity="0.3"/>
<path d="M314.652 -113.723C305.934 -109.49 288.741 -91.0542 289.708 -51.1724C290.917 -1.32014 317.289 29.8767 323.882 76.9071C328.748 111.619 328.057 198.559 298.389 235.086" stroke="#2B2C4F" stroke-opacity="0.3"/>
<path d="M302.596 -103.868C293.879 -99.6357 276.686 -81.1998 277.653 -41.318C278.861 8.53426 305.234 39.7311 311.827 86.7615C316.693 121.474 316.002 208.414 286.334 244.941" stroke="#2B2C4F" stroke-opacity="0.3"/>
<path d="M290.373 -94.4453C281.655 -90.2126 264.462 -71.7766 265.429 -31.8948C266.638 17.9574 293.01 49.1543 299.603 96.1847C304.469 130.897 303.779 217.837 274.11 254.364" stroke="#2B2C4F" stroke-opacity="0.3"/>
<path d="M277.984 -85.4724C269.267 -81.2397 252.074 -62.8037 253.041 -22.9219C254.249 26.9303 280.622 58.1272 287.215 105.158C292.081 139.87 291.39 226.81 261.721 263.337" stroke="#2B2C4F" stroke-opacity="0.3"/>
<path d="M265.429 -76.9824C256.712 -72.7497 239.518 -54.3138 240.485 -14.432C241.694 35.4203 268.066 66.6172 274.659 113.648C279.526 148.36 278.835 235.3 249.166 271.827" stroke="#2B2C4F" stroke-opacity="0.3"/>
<path d="M252.705 -69.0222C243.988 -64.7894 226.795 -46.3535 227.762 -6.47168C228.971 43.3806 255.343 74.5774 261.936 121.608C266.802 156.32 266.111 243.26 236.443 279.787" stroke="#2B2C4F" stroke-opacity="0.3"/>
<path opacity="0.95" d="M239.808 -61.6514C231.09 -57.4187 213.897 -38.9828 214.864 0.899043C216.073 50.7513 242.445 81.9481 249.038 128.979C253.904 163.691 253.214 250.631 223.545 287.158" stroke="#2B2C4F" stroke-opacity="0.3"/>
<path opacity="0.9" d="M226.733 -54.9473C218.015 -50.7146 200.822 -32.2787 201.789 7.60314C202.998 57.4554 229.37 88.6523 235.963 135.683C240.829 170.395 240.139 257.335 210.47 293.862" stroke="#2B2C4F" stroke-opacity="0.3"/>
<path opacity="0.85" d="M213.478 -49.0069C204.76 -44.7742 187.567 -26.3382 188.534 13.5436C189.743 63.3958 216.115 94.5927 222.708 141.623C227.574 176.335 226.884 263.275 197.215 299.802" stroke="#2B2C4F" stroke-opacity="0.3"/>
<path opacity="0.8" d="M200.043 -43.9537C191.326 -39.7209 174.132 -21.285 175.099 18.5968C176.308 68.4491 202.68 99.6459 209.273 146.676C214.14 181.388 213.449 268.328 183.78 304.855" stroke="#2B2C4F" stroke-opacity="0.3"/>
<path opacity="0.75" d="M186.437 -39.9438C177.719 -35.7111 160.526 -17.2752 161.493 22.6066C162.702 72.4589 189.074 103.656 195.667 150.686C200.533 185.398 199.843 272.338 170.174 308.865" stroke="#2B2C4F" stroke-opacity="0.3"/>
<path opacity="0.7" d="M172.679 -37.1758C163.961 -32.943 146.768 -14.5071 147.735 25.3747C148.944 75.2269 175.316 106.424 181.909 153.454C186.775 188.166 186.084 275.106 156.416 311.633" stroke="#2B2C4F" stroke-opacity="0.3"/>
<path opacity="0.65" d="M158.814 -35.8986C150.097 -31.6659 132.903 -13.23 133.87 26.6519C135.079 76.5041 161.451 107.701 168.044 154.731C172.911 189.443 172.22 276.383 142.551 312.91" stroke="#2B2C4F" stroke-opacity="0.3"/>
<path opacity="0.6" d="M144.925 -36.4182C136.208 -32.1854 119.015 -13.7495 119.982 26.1323C121.19 75.9846 147.562 107.181 154.155 154.212C159.022 188.924 158.331 275.864 128.662 312.391" stroke="#2B2C4F" stroke-opacity="0.3"/>
<path opacity="0.55" d="M131.158 -39.0877C122.441 -34.855 105.248 -16.419 106.215 23.4628C107.423 73.315 133.796 104.512 140.389 151.542C145.255 186.254 144.564 273.194 114.896 309.721" stroke="#2B2C4F" stroke-opacity="0.3"/>
<path opacity="0.5" d="M117.747 -44.2671C109.03 -40.0344 91.8363 -21.5984 92.8033 18.2834C94.012 68.1356 120.384 99.3325 126.977 146.363C131.843 181.075 131.153 268.015 101.484 304.542" stroke="#2B2C4F" stroke-opacity="0.3"/>
<path opacity="0.45" d="M102.716 -53.6261C93.999 -49.3934 76.8058 -30.9574 77.7728 8.92437C78.9815 58.7766 105.354 89.9735 111.947 137.004C116.813 171.716 116.122 258.656 86.4536 295.183" stroke="#2B2C4F" stroke-opacity="0.3"/>
<path opacity="0.4" d="M89.8388 -61.0663C81.1213 -56.8336 63.9281 -38.3977 64.8951 1.48413C66.1038 51.3364 92.476 82.5332 99.069 129.564C103.935 164.276 103.245 251.216 73.5759 287.743" stroke="#2B2C4F" stroke-opacity="0.3"/>
<path opacity="0.35" d="M76.5736 -66.9632C67.8562 -62.7305 50.663 -44.2945 51.63 -4.41272C52.8387 45.4395 79.2109 76.6364 85.8039 123.667C90.6701 158.379 89.9795 245.319 60.3108 281.846" stroke="#2B2C4F" stroke-opacity="0.3"/>
<path opacity="0.3" d="M63.0136 -71.2803C54.2961 -67.0475 37.1029 -48.6116 38.0699 -8.7298C39.2786 41.1225 65.6508 72.3193 72.2438 119.35C77.11 154.062 76.4194 241.002 46.7507 277.529" stroke="#2B2C4F" stroke-opacity="0.3"/>
<path opacity="0.25" d="M49.2528 -74.018C40.5354 -69.7853 23.3422 -51.3493 24.3092 -11.4675C25.5179 38.3847 51.8901 69.5816 58.4831 116.612C63.3493 151.324 62.6587 238.264 32.99 274.791" stroke="#2B2C4F" stroke-opacity="0.3"/>
<path opacity="0.2" d="M35.3844 -75.2112C26.667 -70.9785 9.47377 -52.5425 10.4407 -12.6607C11.6495 37.1915 38.0216 68.3884 44.6147 115.419C49.4808 150.131 48.7903 237.071 19.1216 273.598" stroke="#2B2C4F" stroke-opacity="0.3"/>
<path opacity="0.15" d="M21.4921 -74.9207C12.7746 -70.6879 -4.41857 -52.252 -3.45159 -12.3702C-2.24286 37.482 24.1293 68.6789 30.7224 115.709C35.5885 150.421 34.898 237.361 5.22926 273.888" stroke="#2B2C4F" stroke-opacity="0.3"/>
<path opacity="0.1" d="M7.64907 -73.2248C-1.0684 -68.9921 -18.2616 -50.5561 -17.2946 -10.6743C-16.0859 39.1779 10.2863 70.3748 16.8793 117.405C21.7455 152.117 21.0549 239.057 -8.61376 275.584" stroke="#2B2C4F" stroke-opacity="0.3"/>
<path opacity="0.05" d="M-6.08286 -70.2104C-14.8003 -65.9776 -31.9935 -47.5417 -31.0265 -7.65992C-29.8178 42.1923 -3.44564 73.3892 3.14741 120.42C8.01356 155.132 7.323 242.072 -22.3457 278.599" stroke="#2B2C4F" stroke-opacity="0.3"/>
</g>
</svg>
