<svg width="68" height="68" viewBox="0 0 68 68" fill="none" xmlns="http://www.w3.org/2000/svg">
<circle cx="34" cy="34" r="34" fill="#FEF3C7"/>
<path d="M49.4006 25.9499C46.631 20.5085 40.9922 16.7729 34.4697 16.7729C25.2122 16.7729 17.7085 24.2805 17.7085 33.5438C17.7085 42.8051 25.2122 50.3146 34.4697 50.3146C43.7272 50.3146 51.231 42.807 51.231 33.5438C51.231 33.0435 51.1984 32.5529 51.1562 32.0641" stroke="#1E293B" stroke-width="2.87117" stroke-linecap="round" stroke-linejoin="round"/>
<path d="M17.747 34.6687C14.1743 37.2888 12.2404 40.1964 13.1029 42.228C14.3257 45.2564 21.2257 45.3235 28.5148 42.3775" stroke="#1E293B" stroke-width="2.87117" stroke-linecap="round" stroke-linejoin="round"/>
<path fill-rule="evenodd" clip-rule="evenodd" d="M28.3783 37.0092L24.8535 32.323L27.441 31.4547C27.9106 31.2976 28.4262 31.3704 28.8325 31.6521L31.0788 33.2027L36.4819 30.8241L30.8373 23.6731L35.4335 22.6956L42.8568 28.5088L50.7726 25.354C52.7103 24.5816 54.8493 25.8734 55.0659 27.9472V27.9472C55.2116 29.3234 54.4392 30.6344 53.1627 31.1749L38.9736 37.1817C38.6094 37.3351 38.2223 37.4194 37.8274 37.429L29.6739 37.6321C29.166 37.6494 28.683 37.4156 28.3783 37.0092Z" stroke="#D97706" stroke-width="2.875" stroke-linecap="round" stroke-linejoin="round"/>
</svg>
