<svg width="68" height="68" viewBox="0 0 68 68" fill="none" xmlns="http://www.w3.org/2000/svg">
<circle cx="34" cy="34" r="34" fill="#FEF3C7"/>
<path d="M48.6688 24.9304C50.3657 27.6508 51.2627 30.7938 51.2574 34C51.2546 40.3582 47.7573 46.2003 42.1545 49.2062C36.5516 52.212 29.7501 51.895 24.4512 48.381" stroke="#1E293B" stroke-width="2.875" stroke-linecap="round" stroke-linejoin="round"/>
<path d="M19.6193 43.549C15.1251 36.7947 15.9449 27.8214 21.5885 21.9932C27.2322 16.1649 36.1744 15.0569 43.0699 19.3315" stroke="#1E293B" stroke-width="2.875" stroke-linecap="round" stroke-linejoin="round"/>
<path fill-rule="evenodd" clip-rule="evenodd" d="M43.0824 33.2826L34.4332 40.2019C33.7955 40.7121 32.8762 40.6612 32.2987 40.0837L27.9167 35.7017C27.3392 35.1242 27.2883 34.2049 27.7985 33.5672L34.7178 24.918C37.8819 20.963 42.6722 18.6606 47.7371 18.6606V18.6606C48.6222 18.6606 49.3397 19.3782 49.3397 20.2633V20.2633C49.3397 25.3282 47.0374 30.1185 43.0824 33.2826Z" stroke="#D97706" stroke-width="2.875" stroke-linecap="round" stroke-linejoin="round"/>
<path d="M27.4785 34.8792L23.8478 33.669C23.4071 33.5221 23.0517 33.1912 22.874 32.7619C22.6962 32.3327 22.7134 31.8474 22.9212 31.4319L24.8571 27.5599C25.1286 27.017 25.6836 26.6741 26.2906 26.6741H33.3135" stroke="#D97706" stroke-width="2.875" stroke-linecap="round" stroke-linejoin="round"/>
<path d="M33.1211 40.5213L34.3317 44.1531C34.4786 44.5939 34.8096 44.9492 35.2388 45.127C35.668 45.3048 36.1533 45.2876 36.5689 45.0798L40.4408 43.1438C40.9837 42.8723 41.3267 42.3174 41.3267 41.7104V34.6875" stroke="#D97706" stroke-width="2.875" stroke-linecap="round" stroke-linejoin="round"/>
<path fill-rule="evenodd" clip-rule="evenodd" d="M23.6599 48.5889L18.6602 49.3401L19.4113 44.3403C19.6549 42.7183 20.9282 41.445 22.5502 41.2014V41.2014C23.7222 41.0253 24.9082 41.416 25.7462 42.254C26.5843 43.0921 26.9749 44.2781 26.7988 45.4501V45.4501C26.5551 47.072 25.2819 48.3453 23.6599 48.5889V48.5889Z" stroke="#D97706" stroke-width="2.875" stroke-linecap="round" stroke-linejoin="round"/>
</svg>
